<?xml version="1.0" standalone="no"?>
<!DOCTYPE svg PUBLIC "-//W3C//DTD SVG 20010904//EN"
 "http://www.w3.org/TR/2001/REC-SVG-20010904/DTD/svg10.dtd">
<svg version="1.0" xmlns="http://www.w3.org/2000/svg"
 width="1246.000000pt" height="1246.000000pt" viewBox="0 0 1246.000000 1246.000000"
 preserveAspectRatio="xMidYMid meet">

<g transform="translate(0.000000,1246.000000) scale(0.100000,-0.100000)"
fill="#000000" stroke="none">
<path d="M6827 7912 c-108 -70 -244 -157 -302 -194 -124 -79 -128 -90 -55
-145 l50 -37 0 -124 0 -124 27 7 c50 12 53 20 53 144 l0 116 -41 36 -42 35 79
49 c44 27 158 100 254 163 96 63 179 116 185 118 11 4 536 -320 536 -331 0 -3
-116 -92 -258 -197 -142 -105 -263 -194 -269 -199 -7 -6 -57 20 -138 72 -94
60 -133 79 -149 75 -26 -7 -238 -170 -250 -193 -6 -9 -5 -25 2 -39 14 -31 23
-27 150 73 52 40 101 73 110 73 9 0 69 -36 135 -80 65 -44 123 -80 127 -80 5
0 93 64 196 142 104 78 247 187 320 241 72 54 134 104 136 111 8 20 -4 29
-258 186 -361 224 -372 230 -386 230 -8 0 -103 -57 -212 -128z"/>
<path d="M3425 7745 c-184 -40 -363 -169 -453 -326 -56 -100 -77 -181 -76
-304 1 -259 116 -477 308 -586 45 -25 55 -35 51 -50 -22 -68 -47 -257 -52
-394 -20 -536 170 -1012 556 -1393 349 -344 804 -520 1290 -499 246 11 459 67
676 177 l111 57 218 -212 219 -212 -11 -33 c-18 -50 -15 -126 7 -168 11 -21
331 -348 753 -768 823 -819 787 -789 924 -788 119 1 208 57 266 167 19 35 23
58 23 132 0 80 -3 95 -27 135 -33 56 -1491 1521 -1539 1546 -45 24 -133 24
-178 0 l-33 -18 -162 164 c-88 90 -172 176 -185 191 l-24 27 114 117 c164 169
262 308 354 498 119 247 175 499 175 783 0 514 -221 1006 -592 1317 -352 296
-752 445 -1193 445 -258 -1 -486 -53 -762 -176 l-103 -46 -65 60 c-150 137
-389 201 -590 157z m326 -110 c38 -12 90 -35 115 -50 51 -30 124 -92 124 -106
0 -5 -15 -16 -32 -25 -34 -17 -144 -104 -238 -187 -155 -138 -299 -345 -395
-569 -21 -49 -41 -88 -45 -88 -12 0 -83 50 -118 83 -47 44 -115 151 -140 217
-55 150 -49 289 18 425 131 268 431 395 711 300z m1379 -185 c165 -20 367 -83
528 -164 330 -166 585 -459 701 -804 60 -180 75 -276 75 -492 1 -215 -11 -296
-66 -470 -72 -229 -193 -425 -373 -606 -269 -271 -596 -417 -966 -431 -350
-13 -670 91 -954 312 -308 239 -525 628 -575 1028 -18 144 -9 397 19 515 l23
92 71 0 c277 1 518 194 610 490 16 52 21 95 22 219 l1 154 64 29 c123 55 327
111 485 131 64 8 255 6 335 -3z m-981 -345 c4 -293 -248 -565 -524 -565 -25 0
-45 3 -45 6 0 4 21 50 47 103 88 178 278 403 448 529 59 44 60 44 66 20 4 -12
7 -55 8 -93z"/>
<path d="M5506 6140 c-159 -159 -292 -290 -295 -290 -8 0 -178 174 -229 233
-42 49 -73 61 -115 43 -38 -16 -367 -346 -367 -368 0 -23 34 -48 66 -48 25 0
53 23 174 145 79 80 149 145 155 145 7 0 71 -61 142 -135 181 -189 144 -197
442 98 130 128 271 266 314 307 49 47 77 81 77 95 0 24 -38 65 -61 65 -8 0
-144 -130 -303 -290z"/>
<path d="M7453 7394 l-43 -36 0 -83 c0 -111 -26 -181 -92 -251 -175 -185 -471
-135 -604 103 -20 35 -39 63 -44 63 -4 0 -18 -9 -31 -19 -23 -18 -23 -21 -11
-67 34 -128 153 -239 306 -286 55 -17 86 -20 160 -16 79 4 102 10 162 39 123
61 214 173 249 304 22 85 19 286 -4 285 -3 0 -25 -16 -48 -36z"/>
<path d="M7167 5422 c-64 -58 -88 -72 -127 -72 -75 0 -71 39 -68 -575 l3 -550
454 -3 c327 -1 458 1 467 9 12 9 14 109 14 560 l0 548 -22 12 c-13 7 -49 34
-81 60 l-59 49 -269 0 -269 0 -43 -38z m578 -52 c18 -20 17 -20 -263 -20 -155
0 -282 4 -282 8 0 24 58 31 286 31 229 1 242 0 259 -19z m95 -300 l0 -210
-400 0 -400 0 0 210 0 210 400 0 400 0 0 -210z m0 -530 l0 -250 -400 0 -400 0
0 250 0 250 400 0 400 0 0 -250z"/>
<path d="M7190 4570 l0 -30 250 0 250 0 0 30 0 30 -250 0 -250 0 0 -30z"/>
<path d="M7253 4443 c-62 -4 -63 -4 -63 -33 l0 -30 251 0 250 0 -3 33 -3 32
-185 1 c-102 0 -213 -1 -247 -3z"/>
<path d="M2479 5177 c-74 -25 -157 -84 -194 -137 -53 -76 -69 -130 -69 -221 0
-80 3 -93 37 -162 60 -122 156 -190 291 -207 196 -25 378 63 450 219 17 38 21
65 21 151 0 96 -2 110 -29 163 -37 72 -118 150 -193 185 -82 38 -219 42 -314
9z m285 -70 c137 -63 209 -197 186 -343 -20 -124 -99 -203 -247 -247 -67 -20
-175 -7 -251 31 -144 70 -209 261 -139 405 77 155 289 228 451 154z"/>
<path d="M2957 4396 c-94 -35 -164 -110 -188 -201 -14 -52 -6 -142 17 -191 24
-50 88 -114 139 -139 56 -27 160 -32 224 -10 62 20 128 82 160 150 34 70 35
172 3 236 -27 56 -83 114 -137 142 -51 26 -165 33 -218 13z m178 -125 c91 -53
109 -177 38 -262 -100 -118 -293 -42 -293 115 0 82 43 143 118 167 36 11 100
2 137 -20z"/>
<path d="M3450 4125 l0 -285 110 0 c92 0 118 4 155 21 57 27 100 78 115 137
13 54 6 92 -28 152 -20 34 -25 56 -23 95 3 64 -26 111 -89 143 -37 18 -60 22
-142 22 l-98 0 0 -285z m192 134 c5 -34 -6 -43 -44 -37 -18 2 -24 10 -26 36
-3 30 -2 32 31 32 31 0 35 -3 39 -31z m58 -169 c26 -26 25 -63 -3 -96 -18 -21
-35 -28 -75 -32 l-52 -5 0 77 0 76 55 0 c42 0 60 -5 75 -20z"/>
<path d="M2538 4211 c-3 -216 -9 -233 -86 -261 -37 -13 -45 -12 -76 2 -24 12
-38 27 -46 52 -11 35 -13 36 -61 36 -59 0 -65 -10 -49 -71 17 -62 83 -124 147
-137 119 -26 244 51 273 168 6 27 10 115 8 220 l-3 175 -52 3 -52 3 -3 -190z"/>
<path d="M2276 3695 c-68 -24 -131 -98 -137 -160 -5 -67 2 -92 36 -132 39 -46
84 -65 188 -81 77 -12 107 -32 107 -71 0 -56 -64 -98 -130 -85 -35 7 -78 47
-86 79 -6 23 -10 25 -71 25 l-65 0 7 -32 c32 -148 183 -233 323 -184 61 22 97
52 127 108 23 42 27 59 23 104 -9 101 -92 169 -223 181 -80 7 -121 36 -110 76
23 77 162 86 181 12 6 -23 10 -25 70 -25 58 0 64 2 64 20 0 52 -76 148 -133
169 -39 15 -124 13 -171 -4z"/>
<path d="M3942 3388 c-62 -178 -112 -326 -112 -330 0 -5 29 -8 63 -8 l64 0 27
70 28 70 108 0 109 0 22 -70 23 -70 68 0 c40 0 68 4 68 10 0 6 -43 135 -96
288 -53 152 -103 296 -111 320 l-15 42 -67 0 -67 0 -112 -322z m242 -79 c-7
-11 -121 -12 -128 -1 -2 4 12 52 32 106 l36 98 33 -97 c18 -54 30 -102 27
-106z"/>
<path d="M4723 3695 c-102 -31 -167 -88 -212 -185 -21 -45 -25 -70 -25 -135 0
-68 4 -89 29 -138 54 -108 163 -182 287 -194 86 -8 159 14 238 73 l62 46 -43
44 c-42 43 -43 44 -63 25 -65 -59 -188 -80 -262 -45 -156 74 -164 295 -14 372
38 20 57 23 121 20 69 -3 82 -7 123 -36 l47 -34 38 34 c22 18 40 38 40 44 2
19 -100 91 -152 108 -57 19 -156 20 -214 1z"/>
<path d="M2730 3375 l0 -325 210 0 210 0 0 60 0 59 -147 3 -148 3 0 70 0 70
143 3 143 3 -3 57 -3 57 -143 3 -143 3 3 67 3 67 150 0 150 0 3 63 3 62 -216
0 -215 0 0 -325z"/>
<path d="M3300 3375 l0 -325 65 0 65 0 0 100 c0 55 4 100 9 100 13 0 59 -55
111 -133 l45 -67 72 0 c40 0 73 2 73 4 0 3 -27 42 -60 88 -91 128 -90 122 -48
166 53 55 71 97 71 167 0 98 -43 163 -133 204 -37 17 -66 21 -157 21 l-113 0
0 -325z m215 191 c87 -37 78 -161 -14 -186 -66 -18 -71 -11 -71 101 l0 99 25
0 c14 0 41 -6 60 -14z"/>
<path d="M5230 3375 l0 -325 65 0 65 0 0 135 0 135 130 0 130 0 0 -135 0 -135
58 0 59 0 6 173 c4 94 7 241 7 325 l0 152 -65 0 -65 0 0 -125 0 -125 -130 0
-130 0 0 125 0 125 -65 0 -65 0 0 -325z"/>
</g>
</svg>
